<svg
        width="141"
        height="16"
        viewBox="0 0 141 16"
        fill="none"
        xmlns="http://www.w3.org/2000/svg"
      >
        <path
          d="M25 15.7841L31.0105 0.237516H32.5672L26.708 15.7841H25ZM37.3669 15.7841L31.5078 0.237516H33.1725L39.183 15.7841H37.3669ZM27.9836 9.50067H36.1129V11.0553H27.9836V9.50067Z"
          fill="white"
        />
        <path
          d="M45.609 15.9784C43.7929 15.9784 42.3443 15.5322 41.2633 14.6397C40.1967 13.7472 39.5697 12.4732 39.3823 10.8178H41.112C41.2705 12.0126 41.7246 12.9123 42.4741 13.5169C43.2236 14.1215 44.2614 14.4238 45.5874 14.4238C46.7117 14.4238 47.5549 14.215 48.117 13.7976C48.6935 13.3657 48.9818 12.7395 48.9818 11.919C48.9818 11.2137 48.7872 10.6523 48.3981 10.2348C48.0089 9.81736 47.4035 9.47188 46.5819 9.19838L43.9659 8.2915C42.6398 7.83086 41.6597 7.27665 41.0255 6.62888C40.3913 5.96671 40.0742 5.1318 40.0742 4.12416C40.0742 3.28925 40.2832 2.5695 40.7012 1.96491C41.1192 1.34593 41.7101 0.863697 42.4741 0.518218C43.238 0.172739 44.1244 1.40274e-08 45.1334 1.40274e-08C46.69 1.40274e-08 47.9368 0.410256 48.8737 1.23077C49.8106 2.03689 50.3511 3.18848 50.4953 4.68556H48.7656C48.5782 3.60594 48.1891 2.81421 47.5981 2.31039C47.0216 1.80657 46.1856 1.55466 45.0901 1.55466C44.0524 1.55466 43.2452 1.76338 42.6686 2.18084C42.0921 2.59829 41.8038 3.18848 41.8038 3.95142C41.8038 4.59919 42.0056 5.11741 42.4092 5.50607C42.8128 5.89474 43.4398 6.23302 44.2902 6.52092L47.0792 7.49258C48.29 7.91003 49.198 8.47863 49.8034 9.19838C50.4088 9.90373 50.7115 10.8034 50.7115 11.8974C50.7115 13.193 50.2646 14.2006 49.371 14.9204C48.4918 15.6257 47.2378 15.9784 45.609 15.9784Z"
          fill="white"
        />
        <path
          d="M59.2169 16C58.1503 16 57.163 15.8057 56.2549 15.417C55.3613 15.0139 54.5829 14.4597 53.9199 13.7544C53.2569 13.0346 52.7452 12.1925 52.3848 11.2281C52.0245 10.2492 51.8443 9.17679 51.8443 8.0108C51.8443 6.8448 52.0245 5.77958 52.3848 4.81511C52.7452 3.83626 53.2497 2.99415 53.8983 2.2888C54.5613 1.56905 55.3396 1.01484 56.2333 0.62618C57.1413 0.223122 58.1287 0.0215922 59.1953 0.0215922C60.3628 0.0215922 61.4078 0.259109 62.3303 0.734143C63.2671 1.20918 64.0311 1.87854 64.622 2.74224C65.2274 3.60594 65.6021 4.61358 65.7463 5.76518H63.9734C63.8004 4.48403 63.2888 3.47638 62.4384 2.74224C61.6024 1.9937 60.5285 1.61943 59.2169 1.61943C58.1071 1.61943 57.1341 1.89294 56.2981 2.43995C55.4622 2.97256 54.8135 3.7211 54.3523 4.68556C53.8911 5.63563 53.6604 6.74404 53.6604 8.0108C53.6604 9.27755 53.8911 10.3932 54.3523 11.3576C54.8135 12.3077 55.4622 13.0562 56.2981 13.6032C57.1341 14.1359 58.0998 14.4022 59.1953 14.4022C60.5358 14.4022 61.6312 14.0279 62.4816 13.2794C63.3464 12.5308 63.8581 11.5232 64.0166 10.2564H65.7895C65.6454 11.408 65.2706 12.4157 64.6653 13.2794C64.0743 14.143 63.3104 14.8124 62.3735 15.2874C61.451 15.7625 60.3988 16 59.2169 16Z"
          fill="white"
        />
        <path
          d="M67.7832 15.7841V0.237516H69.556V15.7841H67.7832ZM68.6912 15.7841V14.2294H78.2042V15.7841H68.6912ZM68.6912 8.46424V6.90958H77.4259V8.46424H68.6912ZM68.6912 1.79217V0.237516H78.0313V1.79217H68.6912Z"
          fill="white"
        />
        <path
          d="M80.7056 15.7841V0.237516H82.5434L91.4726 13.3225L91.2132 13.3657V0.237516H92.8996V15.7841H91.0618L82.1326 2.69906L82.392 2.65587V15.7841H80.7056Z"
          fill="white"
        />
        <path
          d="M101.036 15.9784C99.2198 15.9784 97.7712 15.5322 96.6902 14.6397C95.6236 13.7472 94.9966 12.4732 94.8092 10.8178H96.5389C96.6974 12.0126 97.1515 12.9123 97.901 13.5169C98.6505 14.1215 99.6883 14.4238 101.014 14.4238C102.139 14.4238 102.982 14.215 103.544 13.7976C104.12 13.3657 104.409 12.7395 104.409 11.919C104.409 11.2137 104.214 10.6523 103.825 10.2348C103.436 9.81736 102.83 9.47188 102.009 9.19838L99.3928 8.2915C98.0667 7.83086 97.0866 7.27665 96.4524 6.62888C95.8182 5.96671 95.5011 5.1318 95.5011 4.12416C95.5011 3.28925 95.7101 2.5695 96.1281 1.96491C96.5461 1.34593 97.137 0.863697 97.901 0.518218C98.6649 0.172739 99.5513 1.40274e-08 100.56 1.40274e-08C102.117 1.40274e-08 103.364 0.410256 104.301 1.23077C105.238 2.03689 105.778 3.18848 105.922 4.68556H104.193C104.005 3.60594 103.616 2.81421 103.025 2.31039C102.448 1.80657 101.612 1.55466 100.517 1.55466C99.4793 1.55466 98.6721 1.76338 98.0956 2.18084C97.519 2.59829 97.2307 3.18848 97.2307 3.95142C97.2307 4.59919 97.4325 5.11741 97.8361 5.50607C98.2397 5.89474 98.8667 6.23302 99.7171 6.52092L102.506 7.49258C103.717 7.91003 104.625 8.47863 105.23 9.19838C105.836 9.90373 106.138 10.8034 106.138 11.8974C106.138 13.193 105.692 14.2006 104.798 14.9204C103.919 15.6257 102.665 15.9784 101.036 15.9784Z"
          fill="white"
        />
        <path
          d="M108.05 15.7841V0.237516H109.822V15.7841H108.05Z"
          fill="white"
        />
        <path
          d="M119.312 16C118.231 16 117.236 15.8057 116.328 15.417C115.435 15.0139 114.656 14.4525 113.993 13.7328C113.33 12.9986 112.811 12.1422 112.437 11.1633C112.076 10.1844 111.896 9.11201 111.896 7.94602C111.896 6.40576 112.213 5.03824 112.847 3.84345C113.481 2.64867 114.354 1.713 115.463 1.03644C116.588 0.359874 117.863 0.0215922 119.29 0.0215922C120.746 0.0215922 122.029 0.359874 123.139 1.03644C124.263 1.713 125.142 2.64867 125.776 3.84345C126.411 5.03824 126.728 6.41296 126.728 7.96761C126.728 9.1336 126.54 10.206 126.165 11.1849C125.805 12.1637 125.293 13.013 124.63 13.7328C123.967 14.4525 123.182 15.0139 122.274 15.417C121.366 15.8057 120.378 16 119.312 16ZM119.29 14.4022C120.4 14.4022 121.373 14.1287 122.209 13.5816C123.059 13.0202 123.722 12.2501 124.198 11.2713C124.674 10.2924 124.912 9.17679 124.912 7.92443C124.912 6.68646 124.674 5.59244 124.198 4.64237C123.737 3.69231 123.081 2.95097 122.231 2.41835C121.395 1.88574 120.414 1.61943 119.29 1.61943C118.166 1.61943 117.186 1.88574 116.35 2.41835C115.514 2.95097 114.865 3.69231 114.404 4.64237C113.943 5.57805 113.712 6.67206 113.712 7.92443C113.712 9.19118 113.943 10.314 114.404 11.2928C114.88 12.2573 115.535 13.0202 116.371 13.5816C117.207 14.1287 118.18 14.4022 119.29 14.4022Z"
          fill="white"
        />
        <path
          d="M128.806 15.7841V0.237516H130.644L139.573 13.3225L139.314 13.3657V0.237516H141V15.7841H139.162L130.233 2.69906L130.492 2.65587V15.7841H128.806Z"
          fill="white"
        />
        <path
          d="M18.3449 16C18.848 16 19.1628 15.4778 18.9118 15.0594L10.067 0.314552C9.81541 -0.104851 9.1846 -0.104851 8.93301 0.314553L0.0881544 15.0594C-0.162816 15.4778 0.151972 16 0.655141 16H3.05064C3.28468 16 3.50089 15.88 3.61762 15.6854L8.93301 6.82441C9.1846 6.405 9.81541 6.405 10.067 6.82441L15.3824 15.6854C15.4991 15.8801 15.7153 16 15.9494 16H18.3449Z"
          fill="white"
        />
        <path
          d="M9.01055 12.7875C9.26213 12.3681 9.89294 12.3681 10.1445 12.7875L11.5073 15.0594C11.7583 15.4778 11.4435 16 10.9403 16H8.21473C7.71156 16 7.39677 15.4778 7.64774 15.0594L9.01055 12.7875Z"
          fill="white"
        />
      </svg>